HIERARCHY
ROOT hip
{
  OFFSET 44.9929 86.6972 5.71506
  CHANNELS 6 Xposition Yposition Zposition Zrotation Xrotation Yrotation
  JOINT abdomen
  {
    OFFSET 0 20.6881 -0.73152
    CHANNELS 3 Zrotation Xrotation Yrotation
    JOINT chest
    {
      OFFSET 0 11.7043 -0.48768
      CHANNELS 3 Zrotation Xrotation Yrotation
      JOINT neck
      {
        OFFSET 0 22.1894 -2.19456
        CHANNELS 3 Zrotation Xrotation Yrotation
        JOINT head
        {
          OFFSET -0.24384 7.07133 1.2192
          CHANNELS 3 Zrotation Xrotation Yrotation
          JOINT leftEye
          {
            OFFSET 4.14528 8.04674 8.04672
            CHANNELS 3 Zrotation Xrotation Yrotation
            End Site
            {
              OFFSET 1 0 0
            }
          }
          JOINT rightEye
          {
            OFFSET -3.6576 8.04674 8.04672
            CHANNELS 3 Zrotation Xrotation Yrotation
            End Site
            {
              OFFSET 1 0 0
            }
          }
        }
      }
      JOINT rCollar
      {
        OFFSET -2.68224 19.2634 -4.8768
        CHANNELS 3 Zrotation Xrotation Yrotation
        JOINT rShldr
        {
          OFFSET -8.77824 -1.95073 1.46304
          CHANNELS 3 Zrotation Xrotation Yrotation
          JOINT rForeArm
          {
            OFFSET -28.1742 -1.7115 0.48768
            CHANNELS 3 Zrotation Xrotation Yrotation
            JOINT rHand
            {
              OFFSET -22.5879 0.773209 7.07136
              CHANNELS 3 Zrotation Xrotation Yrotation
              JOINT rThumb1
              {
                OFFSET -1.2192 -0.487915 3.41376
                CHANNELS 3 Zrotation Xrotation Yrotation
                JOINT rThumb2
                {
                  OFFSET -3.37035 -0.52449 3.41376
                  CHANNELS 3 Zrotation Xrotation Yrotation
                  End Site
                  {
                    OFFSET -1.78271 -1.18214 1.43049
                  }
                }
              }
              JOINT rIndex1
              {
                OFFSET -7.75947 0.938293 5.60832
                CHANNELS 3 Zrotation Xrotation Yrotation
                JOINT rIndex2
                {
                  OFFSET -2.54057 -0.884171 1.56538
                  CHANNELS 3 Zrotation Xrotation Yrotation
                  End Site
                  {
                    OFFSET -1.62519 -0.234802 1.16502
                  }
                }
              }
              JOINT rMid1
              {
                OFFSET -8.24714 1.18213 3.41376
                CHANNELS 3 Zrotation Xrotation Yrotation
                JOINT rMid2
                {
                  OFFSET -3.10165 -0.590103 1.0647
                  CHANNELS 3 Zrotation Xrotation Yrotation
                  End Site
                  {
                    OFFSET -2.48547 -0.328903 0.83742
                  }
                }
              }
              JOINT rRing1
              {
                OFFSET -8.82822 0.546677 1.51678
                CHANNELS 3 Zrotation Xrotation Yrotation
                JOINT rRing2
                {
                  OFFSET -2.60934 -0.819778 -0.0198488
                  CHANNELS 3 Zrotation Xrotation Yrotation
                  End Site
                  {
                    OFFSET -2.33842 -0.294052 0.168128
                  }
                }
              }
              JOINT rPinky1
              {
                OFFSET -8.27202 -0.0477905 -0.4584
                CHANNELS 3 Zrotation Xrotation Yrotation
                JOINT rPinky2
                {
                  OFFSET -1.82734 -0.647385 -0.700984
                  CHANNELS 3 Zrotation Xrotation Yrotation
                  End Site
                  {
                    OFFSET -1.69225 -0.51767 -0.607171
                  }
                }
              }
            }
          }
        }
      }
      JOINT lCollar
      {
        OFFSET 2.68224 19.2634 -4.8768
        CHANNELS 3 Zrotation Xrotation Yrotation
        JOINT lShldr
        {
          OFFSET 8.77824 -1.95073 1.46304
          CHANNELS 3 Zrotation Xrotation Yrotation
          JOINT lForeArm
          {
            OFFSET 28.1742 -1.7115 0.48768
            CHANNELS 3 Zrotation Xrotation Yrotation
            JOINT lHand
            {
              OFFSET 22.5879 0.773209 7.07136
              CHANNELS 3 Zrotation Xrotation Yrotation
              JOINT lThumb1
              {
                OFFSET 1.2192 -0.487915 3.41376
                CHANNELS 3 Zrotation Xrotation Yrotation
                JOINT lThumb2
                {
                  OFFSET 3.37035 -0.52449 3.41376
                  CHANNELS 3 Zrotation Xrotation Yrotation
                  End Site
                  {
                    OFFSET 1.78271 -1.18214 1.43049
                  }
                }
              }
              JOINT lIndex1
              {
                OFFSET 7.75947 0.938293 5.60832
                CHANNELS 3 Zrotation Xrotation Yrotation
                JOINT lIndex2
                {
                  OFFSET 2.54057 -0.884171 1.56538
                  CHANNELS 3 Zrotation Xrotation Yrotation
                  End Site
                  {
                    OFFSET 1.62519 -0.234802 1.16502
                  }
                }
              }
              JOINT lMid1
              {
                OFFSET 8.24714 1.18213 3.41376
                CHANNELS 3 Zrotation Xrotation Yrotation
                JOINT lMid2
                {
                  OFFSET 3.10165 -0.590103 1.0647
                  CHANNELS 3 Zrotation Xrotation Yrotation
                  End Site
                  {
                    OFFSET 2.48547 -0.328903 0.83742
                  }
                }
              }
              JOINT lRing1
              {
                OFFSET 8.82822 0.546677 1.51678
                CHANNELS 3 Zrotation Xrotation Yrotation
                JOINT lRing2
                {
                  OFFSET 2.60934 -0.819778 -0.0198488
                  CHANNELS 3 Zrotation Xrotation Yrotation
                  End Site
                  {
                    OFFSET 2.33842 -0.294052 0.168128
                  }
                }
              }
              JOINT lPinky1
              {
                OFFSET 8.27202 -0.0477905 -0.4584
                CHANNELS 3 Zrotation Xrotation Yrotation
                JOINT lPinky2
                {
                  OFFSET 1.82734 -0.647385 -0.700984
                  CHANNELS 3 Zrotation Xrotation Yrotation
                  End Site
                  {
                    OFFSET 1.69225 -0.51767 -0.607171
                  }
                }
              }
            }
          }
        }
      }
    }
  }
  JOINT rButtock
  {
    OFFSET -8.77824 4.35084 1.2192
    CHANNELS 3 Zrotation Xrotation Yrotation
    JOINT rThigh
    {
      OFFSET 0 -1.70687 -2.19456
      CHANNELS 3 Zrotation Xrotation Yrotation
      JOINT rShin
      {
        OFFSET 0 -36.8199 0.73152
        CHANNELS 3 Zrotation Xrotation Yrotation
        JOINT rFoot
        {
          OFFSET 0.73152 -45.1104 -5.12064
          CHANNELS 3 Zrotation Xrotation Yrotation
          End Site
          {
            OFFSET -1.1221 -3.69964 12.103
          }
        }
      }
    }
  }
  JOINT lButtock
  {
    OFFSET 8.77824 4.35084 1.2192
    CHANNELS 3 Zrotation Xrotation Yrotation
    JOINT lThigh
    {
      OFFSET 0 -1.70687 -2.19456
      CHANNELS 3 Zrotation Xrotation Yrotation
      JOINT lShin
      {
        OFFSET 0 -36.8199 0.73152
        CHANNELS 3 Zrotation Xrotation Yrotation
        JOINT lFoot
        {
          OFFSET -0.73152 -45.1104 -5.12064
          CHANNELS 3 Zrotation Xrotation Yrotation
          End Site
          {
            OFFSET 1.1221 -3.69964 12.103
          }
        }
      }
    }
  }
}
MOTION
Frames:	6
Frame Time:	0.00833333
71.492 85.2982 13.1386 -0.748223 0.000154562 0.0136294 0.984362 -0.0043609 0.0272516 0.271547 -0.00455336 0.0470449 -2.81122e-014 7.95139e-016 7.45443e-017 -8.40828e-014 9.54166e-015 2.43822e-016 -0 0 0 -0 0 0 -1.40161e-014 -6.60027e-018 1.98785e-016 -2.92323e-013 -3.78933e-016 7.95139e-016 -5.05758e-012 1.504e-012 1.90833e-014 -5.78408e-011 -1.53939e-012 7.63333e-014 -1.36443e-010 -7.57406e-014 2.51264e-013 -2.35639e-010 -1.36764e-013 4.32555e-013 -1.36441e-010 -7.67309e-014 2.41722e-013 7.73091 5.47488 0.417314 -1.36442e-010 -7.62339e-014 2.51264e-013 2.90554 0.965183 0.102902 -1.36439e-010 -7.55382e-014 2.48878e-013 10.2786 0.731801 0.0259123 -1.36449e-010 -7.196e-014 2.54444e-013 2.22167 -0.733487 -0.20892 -1.42122e-014 -6.98852e-018 -9.93923e-017 -2.95852e-013 -6.21202e-017 -9.93923e-016 -5.05251e-012 -1.51911e-012 9.54166e-014 -5.78504e-011 1.48693e-012 3.18055e-014 -1.36445e-010 -7.45262e-014 2.54444e-013 -2.35619e-010 -1.30403e-013 4.47663e-013 -1.36449e-010 -7.39479e-014 2.70347e-013 -7.73091 5.47488 -0.417314 -1.36444e-010 -7.48424e-014 2.51264e-013 -2.90554 0.965183 -0.102902 -1.36445e-010 -7.4743e-014 2.56035e-013 -10.2786 0.731801 -0.0259123 -1.36442e-010 -7.03698e-014 2.48083e-013 -2.22167 -0.733487 0.20892 -2.03217e-016 0 -3.88251e-019 1.24873 -5.45299 -0.109159 6.98967e-005 4.32236 0.0238862 -0.510572 1.1295 0.0812218 2.03217e-016 0 3.88251e-019 0.249573 -1.91924 0.0129248 0.00928436 -2.07855 0.0766906 0.496356 3.99654 -0.13796 
66.1323 82.7958 4.29146 -5.48199 -2.25417 26.0832 0.765191 6.71408 -0.514263 0.855625 -0.850199 -0.180402 -3.54759 -1.24821 -2.31337 3.12735 -1.17292 -3.18293 -0 0 0 -0 0 0 3.21223e-014 -1.94527e-014 -6.70176e-014 20.7613 7.49797 4.54557 -7.02814 -4.0601 9.87402 0.0290265 -3.78194 -0.527346 1.46298e-011 3.51311e-010 -1.14356e-010 2.78703e-011 6.09095e-010 -1.96793e-010 1.46315e-011 3.51311e-010 -1.14365e-010 7.73091 5.47488 0.417314 1.46287e-011 3.5131e-010 -1.14352e-010 2.90554 0.965183 0.102902 1.46341e-011 3.51312e-010 -1.14358e-010 10.2786 0.731801 0.0259123 1.46253e-011 3.51314e-010 -1.14352e-010 2.22167 -0.733487 -0.20892 3.19412e-014 -1.9451e-014 -6.72591e-014 -18.1117 8.79149 -5.91478 7.39487 -4.38024 -10.2296 -0.0837117 -6.43154 0.883522 1.68142e-011 7.03702e-012 -6.72135e-011 2.95006e-011 1.25915e-011 -1.14181e-010 1.68091e-011 7.0366e-012 -6.72001e-011 -7.73091 5.47488 -0.417314 1.68132e-011 7.03484e-012 -6.72147e-011 -2.90554 0.965183 -0.102902 1.68102e-011 7.03431e-012 -6.72117e-011 -10.2786 0.731801 -0.0259123 1.68186e-011 7.03723e-012 -6.72186e-011 -2.22167 -0.733487 0.20892 -2.03217e-016 0 -3.88251e-019 -2.18964 -13.8181 -4.272 0.0311773 11.8717 0.185318 -0.498622 -1.54807 -1.4851 2.03217e-016 0 3.88251e-019 4.68213 -12.201 3.41617 -0.00483857 9.11458 -0.0848373 0.600955 1.3919 2.15572 
67.2276 82.7264 3.72676 -8.6571 -3.1115 53.6867 0.659005 13.7717 -1.11718 1.48137 -1.69684 -0.424138 -7.4088 -2.55606 -4.75858 6.30265 -2.43892 -6.54042 -0 0 0 -0 0 0 8.28184e-014 -3.929e-014 -1.41392e-013 41.3827 15.2316 9.64584 -12.9659 -7.95955 20.48 -0.0165878 -7.7676 -1.09094 1.77812e-010 7.19139e-010 -2.37047e-010 3.12448e-010 1.24686e-009 -4.07887e-010 1.77814e-010 7.19141e-010 -2.37055e-010 7.73091 5.47488 0.417314 1.77809e-010 7.19138e-010 -2.37037e-010 2.90554 0.965183 0.102902 1.77817e-010 7.1914e-010 -2.37048e-010 10.2786 0.731801 0.0259123 1.77809e-010 7.19141e-010 -2.37043e-010 2.22167 -0.733487 -0.20892 8.26505e-014 -3.92863e-014 -1.41572e-013 -35.1663 17.699 -12.6813 13.5486 -8.55927 -21.2483 0.0491467 -13.2582 1.85993 1.87117e-010 6.58275e-012 -1.53388e-010 3.2437e-010 1.22147e-011 -2.60955e-010 1.87111e-010 6.58122e-012 -1.53377e-010 -7.73091 5.47488 -0.417314 1.87115e-010 6.57853e-012 -1.53387e-010 -2.90554 0.965183 -0.102902 1.87109e-010 6.57732e-012 -1.53386e-010 -10.2786 0.731801 -0.0259123 1.87123e-010 6.57866e-012 -1.53392e-010 -2.22167 -0.733487 0.20892 -2.03217e-016 0 -3.88251e-019 -7.24837 -22.5219 -9.12549 0.0152973 19.829 0.369853 -0.637853 -4.4124 -3.08695 2.03217e-016 0 3.88251e-019 10.7897 -23.0204 7.44833 0.0527355 20.9709 -0.271394 0.937023 -1.3415 4.57698 
67.6905 82.5274 3.16122 -10.8885 -1.54082 78.2566 0.728657 20.1437 -1.69012 2.00362 -2.54135 -0.635863 -10.9449 -3.72021 -6.95318 8.99249 -3.47534 -9.56454 -0 0 0 -0 0 0 1.24399e-013 -5.83449e-014 -2.0145e-013 58.5187 21.9059 14.5945 -17.0336 -10.7345 30.1271 -0.125285 -11.3419 -1.61004 3.16775e-010 1.05408e-009 -3.43572e-010 5.54889e-010 1.82756e-009 -5.91243e-010 3.16777e-010 1.05409e-009 -3.43578e-010 7.73091 5.47488 0.417314 3.16771e-010 1.05408e-009 -3.43557e-010 2.90554 0.965183 0.102902 3.1678e-010 1.05409e-009 -3.43572e-010 10.2786 0.731801 0.0259123 3.16773e-010 1.05409e-009 -3.43566e-010 2.22167 -0.733487 -0.20892 1.24248e-013 -5.8339e-014 -2.01579e-013 -48.5087 25.1927 -19.4486 17.6647 -11.4656 -31.2906 0.373744 -19.2757 2.79042 3.23332e-010 2.12601e-011 -2.02149e-010 5.59739e-010 3.80354e-011 -3.43438e-010 3.23324e-010 2.12577e-011 -2.02141e-010 -7.73091 5.47488 -0.417314 3.23328e-010 2.12542e-011 -2.02147e-010 -2.90554 0.965183 -0.102902 3.2332e-010 2.12524e-011 -2.02147e-010 -10.2786 0.731801 -0.0259123 3.23339e-010 2.12524e-011 -2.02152e-010 -2.22167 -0.733487 0.20892 -2.03217e-016 0 -3.88251e-019 -13.1766 -29.892 -14.1396 -0.0484524 26.9694 0.557004 -0.915909 -6.88228 -4.64965 2.03217e-016 0 3.88251e-019 17.7661 -32.269 11.8402 0.180093 31.5 -0.474503 1.43492 -3.78805 6.75534 
67.7524 82.4137 2.64861 -12.6937 0.818843 95.3687 0.945363 24.8087 -2.10063 2.28014 -3.38065 -0.767149 -13.4579 -4.548 -8.50909 10.7614 -3.98173 -11.7381 -0 0 0 -0 0 0 1.43193e-013 -7.54438e-014 -2.2572e-013 69.68 26.5037 18.2581 -19.2499 -12.0967 36.8887 -0.242684 -13.8915 -1.9919 3.9519e-010 1.30682e-009 -4.09681e-010 6.91987e-010 2.26557e-009 -7.05251e-010 3.95193e-010 1.30683e-009 -4.09687e-010 7.73091 5.47488 0.417314 3.95185e-010 1.30682e-009 -4.09665e-010 2.90554 0.965183 0.102902 3.95195e-010 1.30682e-009 -4.0968e-010 10.2786 0.731801 0.0259123 3.95189e-010 1.30682e-009 -4.09675e-010 2.22167 -0.733487 -0.20892 1.43067e-013 -7.54349e-014 -2.25819e-013 -56.8026 30.293 -24.6291 19.8461 -12.8195 -38.3077 0.714935 -23.289 3.4682 3.74325e-010 7.37666e-011 -1.57377e-010 6.46356e-010 1.2935e-010 -2.65195e-010 3.74317e-010 7.37638e-011 -1.57371e-010 -7.73091 5.47488 -0.417314 3.7432e-010 7.37598e-011 -1.57374e-010 -2.90554 0.965183 -0.102902 3.74311e-010 7.37578e-011 -1.57375e-010 -10.2786 0.731801 -0.0259123 3.74334e-010 7.37571e-011 -1.5738e-010 -2.22167 -0.733487 0.20892 -2.03217e-016 0 -3.88251e-019 -18.1615 -34.5436 -18.1244 -0.128351 32.0687 0.707766 -1.2444 -8.38355 -6.08221 2.03217e-016 0 3.88251e-019 23.6708 -38.0635 15.5607 0.323791 38.7117 -0.65298 1.90377 -5.54968 8.30488 
67.8156 82.3763 2.1066 -13.0662 1.77725 102.408 1.21097 27.1632 -2.17837 2.19634 -4.27326 -0.775475 -14.4247 -4.94529 -9.15181 11.3195 -3.68746 -12.7017 -0 0 0 -0 0 0 1.26335e-013 -1.01026e-013 -1.9187e-013 73.859 28.6843 19.404 -19.9585 -12.4331 39.4226 -0.303799 -15.0258 -2.1653 3.83428e-010 1.48569e-009 -4.18699e-010 6.72391e-010 2.5753e-009 -7.21411e-010 3.83431e-010 1.4857e-009 -4.18705e-010 7.73091 5.47488 0.417314 3.83422e-010 1.48569e-009 -4.18686e-010 2.90554 0.965183 0.102902 3.83432e-010 1.48569e-009 -4.18697e-010 10.2786 0.731801 0.0259123 3.83426e-010 1.48569e-009 -4.1869e-010 2.22167 -0.733487 -0.20892 1.26251e-013 -1.01012e-013 -1.91979e-013 -60.1872 32.9311 -26.3747 20.5184 -13.1097 -40.8961 0.854782 -24.5612 3.69773 3.05216e-010 2.09136e-010 6.46143e-011 5.22423e-010 3.64268e-010 1.18169e-010 3.05209e-010 2.09134e-010 6.46193e-011 -7.73091 5.47488 -0.417314 3.05212e-010 2.0913e-010 6.4615e-011 -2.90554 0.965183 -0.102902 3.05204e-010 2.09128e-010 6.4614e-011 -10.2786 0.731801 -0.0259123 3.05226e-010 2.09128e-010 6.46076e-011 -2.22167 -0.733487 0.20892 -2.03217e-016 0 -3.88251e-019 -20.1138 -35.7711 -19.5891 -0.173734 34.2766 0.772879 -1.50724 -8.41861 -7.42406 2.03217e-016 0 3.88251e-019 26.1102 -39.3059 17.0159 0.390541 41.275 -0.731744 2.14786 -6.4342 8.9564 
